# xmcd
#
# Track frame offsets:
#	150
#	15710
#	33365
#	45965
#	64353
#	78588
#	96913
#	116213
#	138238
#	154515
#	179463
#	193860
#	210938
#	232385
#	238208
#	254058
#	275485
#
# Disc length: 3777 seconds
#
# Revision: 1
# Processed by: cddbd v1.4PL0 Copyright (c) Steve Scherf et al.
# Submitted via: EasyCDDAExtractor 5.1.0
#
DISCID=f90ebf11
DTITLE=HENRY GRAY, CLARENCE EDWARDS AND SHORT FUSE - THIBODEAUX'S CAFE
DYEAR=1995
DGENRE=Blues
TTITLE0=CLEO
TTITLE1=EARLY IN THE MORNING
TTITLE2=ROCK ME BABY
TTITLE3=WANG DANG DOODLE
TTITLE4=I'M GONNA KEEP WHAT I GOT
TTITLE5=WHEN MY FIRST WIFE QUIT ME
TTITLE6=ALL YOUR LOVE
TTITLE7=RED ROOSTER
TTITLE8=MOJO BOOGIE
TTITLE9=AINT NO USE
TTITLE10=WHAT HAVE I DONE WRONG
TTITLE11=RAININ IN MY HEART
TTITLE12=LONESOME BEDROOM BLUES
TTITLE13=RONNIE'S INTRO
TTITLE14=IT'S A SIN
TTITLE15=IT HURTS ME TOO
TTITLE16=NO TURN ON GRAY
EXTD=
EXTT0=
EXTT1=
EXTT2=
EXTT3=
EXTT4=
EXTT5=
EXTT6=
EXTT7=
EXTT8=
EXTT9=
EXTT10=
EXTT11=
EXTT12=
EXTT13=
EXTT14=
EXTT15=
EXTT16=
PLAYORDER=
